<svg width="550" height="425" xmlns="http://www.w3.org/2000/svg">
 <!-- Created with SVG Editor - http://github.com/mzalive/SVG Editor/ -->

 <g>
  <title>background</title>
  <rect fill="#fff" fill-opacity="0.01" id="canvas_background" height="427" width="552" y="-1" x="-1"/>
 </g>
 <g>
  <title>Layer 1</title>
  <metadata transform="matrix(0.006529945911722346,0,0,0.006529945911722346,0,0) ">Created by potrace 1.16, written by Peter Selinger 2001-2019</metadata>
  <g stroke="null" id="svg_19">
   <g id="svg_4" fill="#ffffff" transform="matrix(0.030449162291180904,0,0,-0.02757431708668896,-13243.21163103299,-7842.16933138769) ">
    <path stroke="null" id="svg_5" d="m446400.3125,-285151.25l0,-365l-234,0c-261,0 -341,-10 -455,-58c-74,-31 -185,-101 -238,-150l-32,-30l-28,30c-85,90 -269,176 -423,199c-108,15 -387,0 -472,-27c-13,-4 -18,0 -18,15l0,21l-740,0l-740,0l0,-50l0,-51l-32,17c-55,28 -163,62 -240,74c-52,8 -262,10 -723,8c-642,-4 -651,-4 -725,-27c-97,-29 -211,-89 -288,-151l-62,-50l-71,55c-85,66 -184,115 -294,147l-80,23l-1825,0c-1740,0 -1828,-1 -1895,-18c-93,-25 -238,-96 -300,-147c-101,-84 -183,-208 -222,-335c-17,-57 -18,-144 -18,-1980l0,-1920l968,0l967,0l0,-462l0,-463l175,0l175,0l0,-718c0,-790 -1,-773 63,-902c17,-36 34,-68 35,-72c2,-5 -399,-8 -891,-8c-958,0 -967,0 -1102,-50c-95,-36 -191,-97 -269,-170c-78,-75 -125,-145 -165,-248l-26,-67l0,-1210l0,-1210l23,-63c64,-177 217,-328 414,-409c152,-62 -8,-57 1961,-60c1777,-3 1800,-3 1884,17c155,37 332,142 423,250l42,50l44,-60c110,-146 287,-237 503,-259c120,-13 1016,-14 1231,-2c123,7 159,13 240,40c107,36 180,75 256,138l53,43l73,-53c87,-62 185,-109 294,-139c78,-22 88,-23 759,-25l680,-2l17,-67c33,-126 42,-293 24,-444c-50,-428 18,-664 218,-756c75,-34 155,-40 257,-19c185,37 368,138 480,263c94,105 158,249 159,355c0,31 4,57 10,57c19,0 146,-51 190,-77c25,-15 99,-65 165,-111c158,-111 227,-144 320,-150l71,-4l59,-112c145,-274 598,-1137 732,-1393l148,-283l436,0l435,0l174,377c96,208 231,502 300,653c70,151 177,385 239,520l112,245l92,0c83,0 99,3 161,32c37,18 118,68 180,112c61,43 136,93 166,111c52,31 169,80 190,80c6,0 10,-19 10,-43c0,-103 59,-245 144,-349c94,-114 223,-197 396,-256c130,-44 250,-50 339,-17c116,43 204,160 237,315c16,77 16,131 -2,575c-10,239 30,408 137,583c27,45 57,101 65,123c20,59 18,181 -6,275c-25,101 -110,274 -192,389c-130,184 -399,427 -638,575c-47,29 -87,54 -89,56c-7,6 146,281 215,385c88,135 224,272 314,317c119,60 149,64 448,69l272,5l-2,536l-3,537l-938,5l-938,5l26,35c41,55 82,141 100,211c16,59 16,172 10,1422l-8,1357l-558,0l-559,0l0,145l0,145l-742,-2l-743,-3l-3,-47l-3,-47l-887,-4c-960,-4 -916,-1 -1060,-60c-80,-32 -161,-81 -220,-133l-47,-41l-54,44c-129,105 -269,164 -432,183c-62,8 -300,10 -704,8c-592,-4 -612,-5 -690,-26c-107,-30 -248,-98 -319,-157l-58,-47l-27,21c-109,88 -204,140 -313,172c-65,20 -102,23 -335,27l-263,4l0,174l0,174l2810,0l2810,0l0,2110l0,2110l-745,0l-745,0l0,-365zm1200,-1745l0,-1821l-847,3c-843,3 -848,3 -905,25c-122,47 -224,131 -264,218l-24,53l2,1169l3,1169l35,58c38,64 105,123 184,163c99,50 124,53 529,53l377,0l0,365l0,365l455,0l455,0l0,-1820zm-9022,-672l-3,-1763l-28,-57c-17,-34 -49,-76 -80,-104c-67,-61 -193,-121 -277,-133c-69,-10 -1620,-14 -1645,-5c-13,5 -15,56 -15,365l0,359l565,0l565,0l0,90l0,90l-337,1c-186,0 -356,2 -378,5c-163,19 -335,126 -389,244c-21,45 -21,50 -21,1210l0,1165l28,57c32,65 108,139 184,180c106,58 85,57 996,57l837,1l-2,-1762zm1920,1747c136,-32 252,-117 304,-222l33,-68l2,-480c2,-267 -1,-498 -6,-520c-7,-28 -23,-52 -55,-81l-45,-41l31,-29c17,-16 40,-49 52,-74c21,-44 21,-57 26,-802l5,-758l568,-1l567,-1l0,-373l0,-374l393,-3c442,-4 444,-4 565,-87c72,-49 107,-89 141,-161l26,-55l0,-1300l0,-1300l-452,-3l-453,-2l0,1090l0,1090l-110,0l-110,0l0,-1090l0,-1090l-455,0l-455,0l0,1458c0,801 0,1460 0,1465c0,4 -170,7 -378,7c-319,0 -387,3 -433,16c-128,38 -242,120 -297,214l-27,45l-3,863l-2,862l-110,0l-110,0l0,-714l0,-714l-452,1l-453,2l-3,1613c-1,888 0,1618 4,1623c3,5 338,9 817,9c681,0 822,-3 875,-15zm2251,0c131,-31 253,-120 307,-225l29,-55l3,-1307l2,-1308l-822,0c-526,0 -839,4 -868,11c-72,16 -188,79 -239,128c-26,25 -59,71 -74,100l-27,55l0,610l0,611l24,50c46,99 201,215 326,244c26,6 195,11 408,11l362,0l0,180l0,180l-110,0l-110,0l0,-90l0,-90l-450,0l-450,0l0,298c0,349 2,361 85,450c66,71 148,121 234,144c59,15 133,17 686,17c519,1 630,-2 684,-14zm1463,-75l3,-90l38,25c132,90 309,139 547,151c140,8 212,-4 305,-50c95,-47 167,-113 202,-184l28,-57l0,-1305l0,-1305l-452,-3l-453,-2l0,1090l0,1090l-110,0l-110,0l0,-1090l0,-1090l-450,0l-450,0l0,1455l0,1455l450,0l449,0l3,-90zm-4502,-3655l0,-275l570,0l570,0l0,-365l0,-365l-560,0l-560,0l-2,-631c-2,-347 0,-633 4,-635c6,-4 153,-8 201,-5c16,1 17,34 17,546l0,545l450,0l451,0l-3,-767l-3,-768l-27,-51c-49,-93 -167,-179 -297,-218c-48,-14 -135,-16 -693,-16c-621,0 -640,1 -701,21c-125,42 -245,139 -287,232c-19,40 -20,75 -20,895l0,852l-175,0l-175,0l0,365l0,365l165,0c150,0 165,2 165,18c0,9 0,133 0,275l-1,257l456,0l455,0l0,-275zm9170,-130l0,-145l560,0l560,0l0,-365l0,-365l-560,0l-560,0l0,-635l0,-635l110,0l110,0l2,548l3,547l448,2l447,2l0,-768c0,-845 3,-801 -62,-883c-37,-47 -149,-122 -225,-151c-57,-22 -65,-22 -705,-25l-647,-3l-76,26c-138,46 -253,141 -291,240c-18,48 -19,86 -19,892l0,843l-112,0l-113,0l0,365l0,365l113,0l112,0l-3,145l-4,145l456,0l456,0l0,-145zm-3895,34c128,-20 273,-117 330,-221l30,-53l3,-772l2,-773l-560,0c-441,0 -560,-3 -561,-12c-3,-45 1,-342 5,-345c2,-3 50,-5 105,-6l101,-2l0,93l0,92l455,0l455,0l0,-297c0,-169 -4,-314 -10,-334c-26,-93 -134,-193 -264,-245l-71,-29l-675,0l-675,0l-63,27c-134,58 -237,155 -262,249c-7,24 -9,444 -8,1196l3,1158l30,53c55,100 183,190 308,217c75,16 1223,20 1322,4zm2635,-359l0,-370l-565,0l-565,0l0,-85l0,-85l565,0l565,0l0,-369l0,-368l-32,0c-18,0 -273,-1 -565,-2l-533,-1l0,-635l0,-635l-460,0l-460,0l3,1308l2,1307l22,47c55,120 200,223 348,247c28,5 416,9 863,10l812,1l0,-370zm62,-1912c4,-335 6,-357 27,-423c27,-80 52,-132 93,-192l29,-43l-526,0l-525,0l0,505l0,505l449,0l449,0l4,-352zm-5662,-953l0,-145l533,-1c292,-1 544,-1 560,-1l27,-1l0,-363l0,-364l-560,0l-560,0l0,-635l0,-635l110,0l110,0l0,545l0,545l449,0l449,0l5,-192c2,-106 4,-447 3,-758l-1,-565l-28,-57c-54,-109 -206,-218 -346,-247c-66,-14 -1222,-14 -1296,-1c-90,17 -206,82 -273,154c-98,105 -93,54 -92,862c0,384 0,763 0,842l0,142l-110,0l-110,0l0,365l0,364l112,-1l111,-1l-2,136c-1,75 0,141 4,147c4,6 162,10 456,10l449,0l0,-145zm-3878,24c130,-27 264,-124 315,-227l28,-57l3,-1307l2,-1308l-818,0c-905,0 -873,-2 -1002,65c-75,40 -152,111 -184,170c-21,40 -21,45 -21,670c0,721 -8,661 97,762c69,67 138,109 217,133c58,18 94,20 432,20l369,0l0,180l0,181l-107,-3l-107,-3l-1,-85l0,-85l-452,-3l-453,-2l0,298c0,354 1,361 92,458c65,69 165,127 248,143c69,13 1278,13 1342,0zm1478,-1081l0,-1093l103,1l102,1l3,1092l2,1091l453,-2l452,-3l0,-1310l0,-1310l-22,-45c-44,-89 -167,-182 -292,-220c-60,-19 -95,-20 -702,-20c-622,0 -641,1 -702,21c-138,46 -263,154 -292,251c-13,45 -15,216 -15,1345l0,1293l455,0l455,0l0,-1092zm5010,772l0,-320l143,-1c307,-1 385,-26 530,-169l87,-86l0,-498l0,-499l-117,-121c-134,-138 -211,-242 -282,-377c-93,-177 -130,-360 -96,-472l14,-47l-576,0c-632,0 -635,0 -756,62c-71,35 -160,117 -191,173l-21,40l-3,1159c-3,1339 -12,1218 97,1327c70,70 147,114 234,135c37,8 183,12 495,13l442,1l0,-320zm7125,314c13,-5 15,-41 15,-270l0,-264l-88,0c-245,0 -427,-51 -588,-165c-168,-120 -358,-382 -543,-753l-61,-122l-38,16c-20,9 -54,23 -75,32l-37,15l93,181c153,296 271,476 408,620c190,200 379,295 657,327l112,13l0,103c0,76 -3,103 -12,103c-7,0 -545,1 -1196,3l-1182,2l0,-107c0,-122 -9,-111 101,-122c93,-9 247,-53 333,-95c234,-114 331,-307 290,-578c-17,-116 -49,-229 -80,-281c-5,-8 -154,31 -154,39c0,5 7,26 16,47c63,146 83,329 49,432c-58,176 -317,287 -672,290l-43,0l0,270l0,270l1340,0c736,0 1346,-3 1355,-6zm-3221,-20c3,-9 6,-128 6,-265c0,-191 -3,-251 -12,-253c-7,-3 -69,-7 -138,-10c-141,-7 -227,-24 -300,-61c-167,-85 -219,-240 -159,-479c11,-43 18,-80 17,-82c-7,-6 -146,-7 -156,0c-6,3 -18,39 -27,79c-76,347 73,601 398,677c76,17 146,28 190,29c15,1 17,13 17,111l0,110l-1745,0l-1745,0l0,-110c0,-98 2,-110 18,-110c98,-2 241,-28 323,-59c185,-70 372,-266 584,-612c120,-196 297,-522 287,-530c-14,-12 -132,-72 -136,-68c-1,2 -27,49 -56,104c-278,524 -496,822 -673,924c-93,53 -239,80 -429,81l-78,0l0,270l0,270l1904,0c1727,0 1904,-1 1910,-16zm-2810,-345c25,-28 44,-54 41,-59c-3,-6 -141,-35 -167,-35c-12,0 -117,129 -112,137c3,4 47,8 99,8l93,0l46,-51zm228,14c21,-20 38,-40 38,-44c0,-3 -33,-9 -72,-13c-40,-4 -82,-8 -93,-9c-13,-1 -38,17 -69,51l-49,52l104,0l103,0l38,-37zm227,3l32,-33l-62,-7c-113,-11 -122,-9 -164,34l-39,40l100,0l100,0l33,-34zm456,-17l50,-51l-35,5c-19,3 -65,9 -102,13c-60,5 -70,10 -104,45l-38,39l90,0l90,0l49,-51zm229,-23l79,-73l-106,20c-103,20 -108,22 -164,74l-58,52l85,0l85,0l79,-73zm452,30c66,-33 113,-66 179,-128c50,-46 108,-98 130,-116l40,-34l-55,32c-30,17 -99,53 -152,80c-66,32 -122,70 -172,115c-119,107 -111,121 30,51zm268,-72l109,-116l-69,44c-38,25 -98,61 -134,81c-36,20 -81,52 -99,71l-35,36l60,0l59,0l109,-116zm2771,65c-29,-29 -82,-67 -125,-90c-41,-21 -100,-54 -132,-73c-54,-33 -51,-29 59,77c63,62 125,117 137,124c11,7 41,12 66,13l44,0l-49,-51zm354,8c-34,-32 -68,-50 -125,-69c-44,-15 -88,-30 -99,-34c-11,-4 14,28 55,70l74,76l71,0l70,-1l-46,-42zm-3766,7c101,-29 101,-29 206,-125l73,-67l-110,33c-61,18 -123,42 -139,53c-36,26 -140,132 -130,132c5,0 50,-12 100,-26zm-1448,-31c83,-99 81,-88 21,-103c-53,-12 -53,-12 -102,23c-27,19 -69,44 -92,57c-24,12 -42,24 -39,26c7,8 130,42 152,43c13,1 36,-17 60,-46zm4969,-38c-67,-63 -100,-85 -218,-144c-113,-55 -133,-62 -105,-38c19,16 67,59 108,96c54,48 103,79 175,113c56,26 105,47 110,47c5,1 -26,-33 -70,-74zm390,23c-18,-32 -27,-38 -39,-28c-9,8 -12,7 -11,-2c0,-7 -3,-15 -9,-18c-19,-10 -51,-45 -48,-52c2,-4 -3,-5 -12,-2c-12,5 -13,10 -4,20c6,8 15,11 20,8c5,-3 6,2 2,11c-4,12 -8,13 -13,5c-4,-6 -11,-12 -16,-12c-5,0 -8,-4 -6,-9c3,-12 -11,-11 -26,1c-8,7 -9,7 -3,-1c5,-6 7,-19 4,-28c-4,-14 -3,-14 6,-1c9,13 12,13 23,1c8,-9 9,-11 1,-7c-6,3 -15,2 -18,-4c-4,-6 -15,-8 -26,-5c-11,4 -19,2 -19,-5c0,-7 -6,-10 -13,-7c-7,3 -24,-1 -37,-8c-13,-7 -30,-11 -37,-8c-7,3 -13,0 -13,-6c0,-6 -7,-11 -16,-11c-8,0 18,29 58,64c40,35 76,63 79,62c3,0 13,5 22,13c16,13 21,9 18,-14c-1,-5 8,1 19,14c12,13 26,21 35,17c8,-3 15,-1 15,5c0,6 4,8 8,5c4,-2 14,-1 22,5c22,13 42,11 34,-3zm-4545,-78l75,-70l-80,-1c-43,0 -88,-2 -98,-4c-13,-3 -42,18 -89,63l-69,67l48,6c129,16 132,15 213,-61zm237,-7c40,-37 72,-68 71,-69c-1,-1 -46,1 -101,4l-99,5l-66,60c-36,32 -68,64 -70,70c-2,7 28,8 94,3l97,-7l74,-66zm683,33c89,-36 124,-56 197,-117c50,-41 105,-87 124,-102c22,-18 26,-24 12,-17c-13,7 -80,36 -149,66c-103,44 -140,66 -209,125c-81,69 -102,89 -89,89c3,0 54,-20 114,-44zm-1115,-107c-22,-4 -64,-9 -95,-13l-56,-6l-67,61c-36,33 -66,64 -66,69c0,4 39,12 88,16l87,9l74,-65l74,-65l-39,-6zm535,121c67,-10 79,-15 120,-53c25,-23 62,-55 81,-70l35,-28l-30,5c-16,3 -65,10 -108,16c-46,6 -88,17 -101,28c-66,52 -126,106 -126,113c0,5 12,6 28,4c15,-3 60,-9 101,-15zm-787,-77l68,-67l-92,-18l-93,-18l-62,62c-35,35 -63,65 -63,68c0,5 120,33 165,39c5,0 40,-29 77,-66zm1058,29c52,-12 78,-26 127,-68c34,-29 73,-60 88,-70c14,-9 24,-18 22,-21c-2,-2 -53,8 -113,23c-112,27 -135,39 -244,135l-35,30l45,-6c25,-4 74,-14 110,-23zm3680,25c0,-12 -142,-117 -152,-111c-7,4 -8,3 -4,-4c8,-13 -39,-47 -53,-38c-5,3 -11,2 -13,-3c-1,-4 -43,-25 -93,-45c-126,-52 -125,-52 -75,-15c25,19 70,54 100,78c80,64 89,69 192,106c104,38 98,36 98,32zm-3382,-111c40,-14 91,-40 115,-59c23,-19 80,-60 127,-92c79,-53 114,-79 82,-60c-8,4 -79,31 -158,60c-141,52 -208,90 -304,174l-35,30l50,-14c28,-8 83,-26 123,-39zm-729,-61l83,-65l-105,0l-105,0l-71,56c-39,31 -68,60 -65,65c3,5 45,9 93,9l88,0l82,-65zm251,-13l85,-65l-79,7c-43,3 -91,6 -106,6c-23,0 -127,69 -185,121c-5,5 35,6 95,3l105,-7l85,-65zm-492,11c39,-32 71,-61 71,-65c1,-3 -42,-9 -94,-13l-95,-7l-70,57c-39,32 -68,60 -66,62c6,6 101,20 148,22c30,1 48,-8 106,-56zm575,31c98,-16 103,-18 194,-82c51,-36 91,-67 90,-68c-1,-1 -51,7 -111,17c-113,20 -164,44 -261,124c-36,30 -39,29 88,9zm-793,-63c78,-68 84,-59 -53,-82l-67,-11l-65,56c-36,30 -67,59 -68,63c-2,9 99,30 151,32c27,1 46,-10 102,-58zm1086,4c71,-19 120,-39 174,-72c41,-26 109,-66 150,-90c41,-23 72,-43 69,-43c-3,0 -38,11 -79,25c-40,14 -109,34 -154,46c-61,17 -105,37 -178,85c-132,85 -131,87 18,49zm-425,-115l91,-60l-108,0l-109,0l-77,52c-42,28 -75,55 -72,60c3,4 45,8 94,8l89,0l92,-60zm-300,32c13,-11 48,-35 77,-55c61,-42 61,-42 -68,-51l-75,-6l-77,53c-43,28 -78,55 -78,59c0,7 53,13 146,16c37,1 58,-3 75,-16zm567,-48c121,-75 122,-76 92,-70c-14,3 -65,8 -115,12c-85,6 -94,9 -173,57c-45,28 -86,55 -89,60c-4,6 30,7 96,3c100,-8 102,-8 189,-62zm-751,-11l76,-57l-74,-12c-41,-6 -84,-13 -96,-15c-14,-3 -48,14 -98,50c-41,30 -73,56 -71,58c5,5 141,31 169,32c10,1 52,-25 94,-56zm878,27c61,-12 115,-26 122,-32c7,-5 67,-38 135,-74c122,-63 135,-74 68,-54c-19,6 -86,22 -148,36c-95,20 -130,34 -210,80c-105,60 -126,75 -96,69c10,-2 69,-14 129,-25zm-430,-139c98,-56 97,-58 -46,-63c-74,-2 -77,-1 -162,47c-81,47 -85,50 -60,56c16,4 63,7 105,8c76,1 80,0 163,-48zm278,-7l102,-55l-120,6c-118,7 -121,8 -202,51c-46,25 -83,47 -83,50c0,2 45,4 100,4l101,0l102,-56zm133,32c66,-10 112,-24 170,-53c43,-22 105,-50 136,-63c32,-13 56,-25 54,-27c-1,-2 -34,3 -72,11c-38,8 -107,20 -153,26c-69,9 -103,21 -190,65c-95,49 -102,54 -71,54c19,0 76,-6 126,-13zm-664,-43c43,-25 77,-48 75,-50c-2,-2 -45,-10 -95,-18l-91,-15l-53,31c-29,17 -66,41 -83,53l-30,21l60,11c110,21 131,18 217,-33zm-234,-37l83,-53l-86,-18c-47,-10 -87,-16 -89,-14c-19,23 -74,114 -71,117c3,4 54,18 75,21c3,0 42,-24 88,-53zm743,-75l104,-50l-122,0l-122,-1l-91,42c-61,28 -87,44 -78,49c7,5 56,9 109,9c95,0 98,-1 200,-49zm272,7c40,-16 108,-43 152,-59c71,-25 75,-28 35,-23c-25,3 -101,11 -170,18c-109,11 -138,18 -225,56c-55,23 -102,45 -105,47c-3,3 51,2 118,-2c105,-6 135,-11 195,-37zm-555,-17l94,-47l-108,-13l-108,-12l-84,41c-46,23 -80,46 -76,50c8,8 120,26 169,28c11,1 62,-20 113,-47zm693,13c132,-24 353,-84 368,-99c26,-26 2,-29 -77,-10c-120,28 -410,123 -381,125c4,0 44,-7 90,-16zm-941,-49c74,-37 82,-44 60,-49c-14,-3 -58,-12 -97,-21l-72,-15l-86,42c-47,23 -85,45 -85,49c0,8 125,36 165,37c17,1 67,-18 115,-43zm745,-40c20,-9 89,-31 153,-50l117,-34l-165,6c-154,6 -172,8 -265,40c-55,19 -107,39 -115,44c-9,5 34,9 111,9c92,0 137,-4 164,-15zm-244,-34c117,-44 116,-46 -38,-56c-89,-6 -94,-5 -187,31c-52,21 -94,40 -92,41c5,6 124,20 172,22c26,1 79,-13 145,-38zm-282,-28c85,-34 106,-53 60,-53c-11,0 -53,-7 -93,-15l-74,-15l-82,35c-45,19 -87,38 -94,42c-10,7 123,40 171,42c12,1 62,-16 112,-36zm-247,-50c48,-20 85,-40 80,-44c-16,-14 -183,-52 -191,-43c-4,5 -20,30 -34,56l-27,46l28,10c42,16 51,14 144,-25zm2233,-13c730,-38 1332,-164 1835,-386c502,-221 904,-556 1070,-892c41,-82 71,-177 69,-222c0,-14 -7,4 -15,40c-28,130 -122,296 -235,415c-101,106 -128,115 -39,14c82,-95 137,-173 169,-239c12,-25 16,-36 9,-26c-52,77 -135,181 -187,231c-33,33 -61,57 -61,53c0,-3 27,-39 61,-79c91,-109 146,-189 190,-278c51,-104 50,-117 -2,-21c-52,96 -107,169 -186,247c-62,61 -123,110 -123,99c0,-4 43,-52 96,-108c143,-153 236,-305 249,-408c5,-40 3,-36 -18,27c-35,103 -106,212 -208,316c-97,99 -135,114 -46,18c115,-125 195,-243 227,-336c27,-79 25,-93 -4,-23c-37,90 -184,280 -239,310c-25,13 -32,22 71,-105c74,-91 145,-203 157,-247c3,-14 -7,-2 -22,25c-16,28 -44,72 -63,100c-38,55 -156,175 -172,175c-5,0 16,-30 49,-67c87,-100 117,-141 156,-213c43,-79 60,-135 19,-64c-16,29 -40,67 -53,85c-30,44 -150,169 -161,169c-5,0 20,-35 55,-78c106,-131 178,-249 176,-292c0,-8 -9,5 -20,29c-11,24 -39,72 -63,105c-44,61 -156,177 -156,162c0,-4 26,-40 58,-79c75,-92 114,-150 141,-211c29,-67 26,-71 -8,-9c-16,29 -45,74 -64,100c-44,60 -185,198 -194,189c-3,-3 21,-34 53,-68c75,-79 142,-166 183,-239c44,-79 39,-87 -6,-10c-48,81 -172,213 -254,271c-80,56 -68,37 44,-70c121,-115 212,-237 232,-310c3,-14 -8,-1 -24,29c-44,77 -106,155 -170,213c-54,47 -91,74 -91,64c0,-2 42,-49 93,-104c85,-92 146,-177 163,-227c4,-11 -16,12 -43,50c-53,74 -151,173 -193,194c-17,9 -9,-3 26,-40c105,-112 193,-232 209,-289c4,-14 -15,9 -42,50c-55,82 -173,202 -173,176c0,-3 25,-33 56,-68c59,-67 137,-187 149,-228c4,-14 -12,4 -36,40c-46,69 -156,186 -165,177c-4,-3 22,-39 56,-79c64,-76 133,-185 145,-228c3,-14 -9,1 -26,33c-18,32 -58,88 -89,125c-53,64 -175,171 -194,172c-5,0 31,-42 80,-92c101,-103 159,-178 198,-256c37,-74 32,-75 -15,-2c-22,34 -63,87 -92,118c-63,67 -167,155 -175,148c-3,-3 31,-41 74,-83c85,-83 178,-201 213,-270c34,-67 25,-61 -27,18c-59,89 -138,177 -183,203c-28,16 -21,6 35,-53c77,-83 144,-182 186,-274c43,-98 45,-121 2,-32c-48,99 -112,184 -197,263c-103,97 -118,94 -25,-4c98,-102 157,-184 205,-287c48,-102 66,-176 72,-302c4,-96 2,-117 -16,-166c-39,-102 -120,-151 -235,-143c-76,5 -225,56 -306,104c-129,76 -241,225 -255,340c-6,46 31,202 48,201c4,-1 26,-1 50,-1c43,0 44,-1 100,-79c31,-43 70,-91 87,-105c46,-38 110,-35 132,8c11,20 10,20 -9,4c-44,-40 -98,-13 -182,88c-28,34 -51,65 -51,68c0,17 20,1 51,-40c58,-78 113,-105 156,-78c19,12 23,12 32,-4c15,-25 13,3 -3,41c-46,111 -215,187 -418,188c-206,0 -350,-59 -595,-242c-174,-131 -231,-158 -299,-143l-39,8l57,6c35,3 66,13 82,25c13,11 70,57 126,102c56,45 141,111 190,145c49,35 85,65 79,66c-16,6 -139,-68 -220,-134l-79,-64l22,44c18,35 44,58 129,114c114,76 153,111 105,93c-46,-18 -89,-42 -139,-78l-48,-35l16,33c10,22 41,50 82,77c73,49 79,68 9,29c-26,-14 -46,-21 -46,-15c0,11 52,65 90,91l25,18l-25,-7c-21,-6 -17,2 29,54c37,44 70,70 114,91c67,32 124,51 97,32c-18,-13 -18,-13 102,3c110,14 173,12 270,-10c67,-16 165,-67 203,-105c13,-14 2,-10 -30,10c-81,51 -151,72 -255,78c-93,5 -193,-9 -264,-36c-40,-16 -29,-22 19,-10c62,14 234,19 295,8c71,-14 142,-44 207,-88c71,-48 67,-58 -4,-15c-79,48 -141,65 -254,71c-100,6 -230,-13 -293,-43l-31,-14l40,5c209,28 276,29 385,3c69,-16 162,-63 195,-98l30,-32l-75,41c-105,56 -189,74 -320,68c-90,-4 -229,-31 -218,-42c2,-2 37,1 78,7c94,13 258,4 330,-18c102,-31 196,-89 222,-138c10,-19 8,-18 -24,6c-156,119 -360,148 -587,82c-29,-8 -51,-17 -49,-19c2,-2 44,2 93,10c111,18 177,18 278,0c149,-26 300,-123 364,-233c36,-60 38,-150 5,-206c-12,-20 -22,-41 -22,-47c0,-11 123,-12 134,-1c4,4 -9,12 -30,18c-39,11 -56,31 -32,38c7,2 25,7 41,10c36,8 35,26 -3,26c-23,0 -30,5 -30,19c0,14 12,22 48,31l47,13l-35,10c-19,5 -41,11 -47,13c-28,8 -10,31 33,42c26,7 45,14 43,16c-3,3 -70,15 -91,16c-5,0 -8,6 -8,14c0,9 15,17 40,21c53,9 51,21 -6,28c-41,4 -63,18 -64,38c0,4 21,9 48,12c45,4 49,2 90,-40c36,-36 42,-46 32,-58c-10,-12 -9,-15 8,-15c32,0 36,-19 11,-47l-24,-26l38,6c20,3 37,2 37,-3c0,-4 -21,-27 -47,-50c-46,-39 -46,-41 -19,-35c17,3 42,15 58,26c15,11 28,18 28,14c0,-14 -24,-52 -53,-83c-39,-41 -14,-45 34,-5l32,27l-16,-31c-9,-16 -32,-44 -52,-62c-29,-25 -32,-31 -16,-31c11,0 34,12 52,27l32,27l-18,-35c-10,-18 -36,-51 -58,-72c-22,-20 -34,-37 -26,-37c18,0 65,31 84,56c8,10 15,14 15,7c0,-27 -23,-68 -56,-100c-45,-42 -27,-44 21,-2c62,55 79,159 50,300c-80,382 -496,734 -1122,952c-246,86 -650,174 -948,207c-55,6 -109,13 -121,15c-11,2 -63,6 -115,10c-52,4 -141,10 -199,15c-108,8 -1021,6 -1075,-3c-16,-3 -70,-8 -120,-11c-49,-4 -106,-9 -125,-11c-19,-3 -93,-12 -163,-20c-636,-77 -1185,-262 -1559,-525c-123,-86 -280,-244 -350,-350c-123,-188 -165,-387 -111,-521c15,-39 64,-89 86,-89c7,1 0,11 -14,23c-30,25 -69,85 -69,106c0,7 17,-2 40,-23c62,-55 84,-46 28,12c-25,26 -51,58 -58,71l-12,24l34,-27c58,-44 73,-32 23,19c-49,48 -61,79 -19,46c15,-12 36,-21 48,-21c19,1 20,1 3,11c-24,14 -78,89 -72,100c3,4 22,-3 42,-16c60,-41 73,-29 20,18c-52,45 -53,60 -3,50l31,-6l-24,26c-25,28 -21,47 11,47c17,0 18,3 8,15c-10,12 -4,22 32,59l43,45l53,-7c49,-6 52,-8 40,-25c-8,-11 -34,-21 -63,-26c-50,-8 -50,-8 -22,-19c16,-7 35,-12 43,-12c20,0 17,-30 -3,-32c-10,0 -22,-2 -28,-3c-5,-2 -18,-3 -28,-4c-29,-2 -10,-20 28,-27c25,-4 35,-11 35,-25c0,-14 -7,-19 -27,-19c-31,0 -60,-15 -47,-23c5,-2 24,-8 42,-12c40,-8 47,-45 8,-45c-36,0 -42,-18 -9,-26c15,-3 34,-8 41,-10c24,-7 7,-27 -34,-39c-31,-8 -35,-12 -21,-18c28,-11 127,-8 127,3c0,5 -10,28 -21,50c-64,123 20,283 198,377c121,65 289,87 447,59c49,-9 92,-14 94,-12c2,3 -29,15 -70,28c-59,18 -96,23 -193,23c-161,0 -251,-28 -385,-122l-25,-18l16,25c25,40 135,108 212,132c77,23 250,31 372,16c59,-8 59,-7 24,6c-155,60 -401,39 -532,-44c-26,-16 -50,-30 -54,-30c-13,0 26,36 72,66c111,70 273,95 459,68c55,-8 101,-12 104,-10c12,13 -145,48 -235,53c-148,9 -252,-17 -363,-88l-35,-23l23,26c28,31 115,78 192,104c65,22 252,26 339,6c78,-18 75,-7 -6,18c-87,28 -241,37 -314,20c-60,-14 -137,-47 -186,-80c-18,-12 -33,-19 -33,-16c0,16 134,93 199,113c86,27 210,33 321,14c80,-13 89,-13 70,-1c-11,8 -7,9 15,4c60,-14 131,-58 188,-116c61,-63 67,-74 40,-64c-10,4 6,-16 36,-43c30,-28 52,-53 49,-57c-3,-3 -25,4 -48,16c-65,33 -57,18 19,-34c58,-40 91,-77 91,-102c0,-3 -21,10 -47,29c-49,35 -93,60 -139,77c-46,18 -16,-9 98,-85c83,-55 116,-84 134,-115c13,-23 24,-44 24,-46c0,-2 -31,22 -69,53c-74,63 -152,112 -216,139c-50,20 -41,11 68,-66c49,-34 134,-99 189,-144c155,-126 155,-126 212,-127c38,0 46,-3 31,-9c-65,-28 -134,2 -307,133c-255,192 -393,249 -603,248c-215,-1 -389,-87 -426,-211c-11,-37 -11,-42 11,-65c53,-56 112,-26 213,110c51,68 54,70 104,75l51,5l21,-76c26,-94 26,-125 2,-195c-55,-155 -195,-276 -398,-344c-251,-84 -385,-12 -399,214c-15,222 79,442 274,648c103,108 73,100 -38,-11c-83,-82 -158,-188 -196,-279c-13,-32 -23,-52 -24,-46c-1,26 63,161 113,237c30,46 83,114 118,152c38,40 54,63 39,55c-42,-23 -127,-114 -180,-196c-64,-98 -70,-104 -35,-34c45,89 83,139 194,253c57,59 100,107 96,107c-15,0 -112,-80 -167,-138c-30,-31 -72,-83 -93,-115c-42,-64 -57,-70 -27,-10c33,64 111,163 201,257c47,49 79,85 71,81c-86,-47 -205,-171 -272,-286c-44,-74 -50,-72 -12,4c32,63 81,133 146,210c57,65 53,75 -7,20c-53,-49 -107,-116 -139,-173c-34,-59 -34,-34 0,32c30,60 85,136 149,208c53,59 56,69 15,40c-49,-35 -132,-135 -173,-207c-44,-77 -40,-47 4,37c33,62 75,117 169,221c70,78 56,79 -29,3c-58,-52 -128,-139 -159,-199c-24,-46 -29,-40 -8,10c25,59 97,156 179,242c44,46 78,85 75,88c-2,2 -31,-18 -65,-45c-71,-57 -151,-154 -193,-235c-32,-61 -40,-61 -14,1c30,73 98,160 211,271c62,62 113,115 113,118c0,3 -31,-17 -69,-45c-73,-53 -175,-157 -218,-221c-30,-45 -40,-51 -19,-11c23,44 99,142 172,220c36,40 61,72 55,72c-24,0 -166,-149 -222,-232c-63,-95 -72,-104 -38,-35c31,60 89,144 148,212c27,33 48,61 45,64c-8,8 -104,-91 -150,-155c-24,-33 -55,-85 -69,-115c-30,-65 -33,-51 -5,21c24,60 97,170 169,254c28,33 48,62 46,65c-16,16 -165,-160 -215,-255c-34,-65 -31,-39 4,41c23,50 109,169 186,258c72,82 26,51 -61,-41c-46,-49 -101,-117 -121,-153c-21,-35 -38,-60 -38,-55c0,24 75,143 146,232c97,121 100,126 79,118c-21,-9 -149,-156 -190,-219c-18,-27 -42,-75 -54,-105c-17,-44 -20,-48 -16,-20c15,90 110,243 241,388c36,39 60,72 55,72c-16,0 -140,-126 -193,-195c-57,-75 -104,-168 -123,-243l-15,-57l5,47c11,114 108,276 261,437c53,56 91,101 86,101c-19,0 -193,-173 -239,-237c-25,-35 -61,-94 -80,-131c-19,-37 -31,-56 -27,-42c22,80 109,220 216,348c38,45 65,82 60,82c-14,0 -143,-139 -183,-196c-18,-27 -51,-80 -71,-119c-43,-80 -52,-81 -12,-2c54,106 109,190 177,270c111,130 107,124 71,99c-125,-87 -285,-337 -320,-501c-13,-61 -13,-62 -9,-14c27,265 335,634 750,893c457,286 1100,486 1785,555c85,9 173,18 195,20c22,2 110,7 195,11c85,4 156,8 158,9c7,6 286,3 447,-5zm-1753,-22c37,-12 68,-24 68,-27c0,-4 -39,-16 -86,-28l-86,-21l-97,31c-53,17 -89,32 -81,34c41,10 168,31 189,32c14,1 55,-9 93,-21zm-256,-53c38,-14 76,-28 84,-31c8,-3 -27,-19 -78,-34l-93,-28l-84,28c-47,16 -90,32 -97,36c-13,9 128,52 173,53c15,1 58,-10 95,-24zm2263,-1623l77,-153l62,144l63,144l52,-5c29,-2 66,-7 83,-11l32,-6l-135,-305c-74,-168 -137,-314 -140,-324c-4,-14 -58,84 -178,325c-95,189 -169,346 -165,349c4,3 45,3 90,0l82,-5l77,-153zm944,24c32,-7 60,-16 63,-19c5,-5 -77,-186 -571,-1262c-78,-170 -218,-474 -310,-675c-92,-201 -187,-405 -210,-455c-23,-49 -66,-143 -95,-207l-53,-118l-268,0c-268,0 -269,0 -283,23c-7,12 -67,123 -131,247c-65,124 -137,261 -160,305c-23,44 -65,123 -92,175c-28,52 -234,444 -458,870c-224,426 -439,836 -478,910c-38,74 -74,140 -79,147c-5,6 -5,13 -1,16c14,7 154,40 157,36c3,-4 59,-110 171,-324c32,-60 99,-189 150,-285c51,-96 120,-229 155,-295c35,-66 80,-151 100,-190c39,-73 110,-208 202,-385c31,-58 83,-157 116,-220c34,-63 92,-174 129,-245c37,-72 127,-242 198,-378l130,-247l170,2l169,3l67,145c37,80 128,278 202,440c74,162 154,336 177,385c23,50 75,162 115,250c99,218 391,854 510,1110c53,116 101,220 106,233c10,26 23,27 102,8zm425,-118l155,-51l-51,-23c-48,-21 -55,-22 -87,-8c-19,8 -65,18 -102,22c-57,7 -63,10 -40,16c15,5 27,12 27,16c0,9 -46,-1 -109,-24c-49,-18 -91,-21 -91,-6c0,6 8,10 18,10c9,0 51,16 92,35c83,38 65,48 -25,14c-56,-21 -73,-21 -60,1c9,14 83,49 104,50c8,0 84,-23 169,-52zm-3663,32c3,-5 -2,-10 -12,-11c-14,0 -14,-2 5,-9c12,-5 22,-17 22,-26c0,-12 -7,-15 -30,-12c-37,6 -38,3 -4,-15c26,-14 25,-14 -32,-19c-33,-4 -78,-13 -102,-21c-41,-14 -46,-14 -94,7l-50,22l139,47c153,52 149,51 158,37z"/>
    <path stroke="null" id="svg_6" d="m446460.3125,-287271.25l0,-735l110,0l110,0l0,735l0,735l-110,0l-110,0l0,-735z"/>
    <path stroke="null" id="svg_7" d="m437450.3125,-286553.25c0,-10 -1,-339 -2,-731l-3,-712l108,0l107,0l0,730l0,730l-105,0c-93,0 -105,-2 -105,-17z"/>
    <path stroke="null" id="svg_8" d="m439710.3125,-286716.25l0,-180l110,0l110,0l0,180l0,180l-110,0l-110,0l0,-180z"/>
    <path stroke="null" id="svg_9" d="m441960.3125,-287806.25l0,-180l28,-1c15,0 63,-1 107,-1l80,-1l3,181l2,182l-110,0l-110,0l0,-180z"/>
    <path stroke="null" id="svg_10" d="m444230.3125,-290367.25c0,-2 -1,-85 -2,-183l0,-179l106,-1l106,-1l0,178l0,177l-89,0c-49,0 -96,3 -105,6c-9,3 -16,5 -16,3z"/>
    <path stroke="null" id="svg_11" d="m437369.3125,-294813.25c-1,-87 -3,-168 -4,-180c-1,-13 0,-23 4,-23c3,-1 52,-2 109,-3l102,-2l0,183l0,182l-105,0l-105,0l-1,-157z"/>
    <path stroke="null" id="svg_12" d="m444270.3125,-293573.25c-4,-176 2,-1439 7,-1440c5,-1 52,-3 106,-5l97,-4l0,728l0,728l-105,0c-58,0 -105,-3 -105,-7z"/>
    <path stroke="null" id="svg_13" d="m447960.3125,-294153.25c-274,-14 -464,-34 -705,-74c-465,-76 -898,-215 -1298,-415c-104,-53 -227,-128 -227,-140c0,-3 20,9 45,26c68,47 342,181 498,244c650,263 1620,396 2447,337c781,-55 1395,-209 1950,-487c80,-41 136,-66 125,-58c-63,49 -399,203 -622,284c-602,221 -1420,326 -2213,283z"/>
    <path stroke="null" id="svg_14" d="m448227.3125,-294282.25c-1,-1 -87,-4 -192,-7c-192,-7 -368,-22 -592,-53l-123,-17l0,-42c0,-41 1,-41 30,-37c42,6 110,-22 146,-59l29,-30l3,-262c2,-144 0,-277 -3,-296c-9,-48 -89,-124 -154,-147c-49,-18 -51,-20 -51,-56c0,-43 -3,-42 90,-28c36,5 88,12 115,15c28,3 64,8 80,10c62,10 265,25 395,31c233,10 214,6 216,42c2,42 -4,48 -55,55c-55,7 -120,51 -144,97c-16,31 -17,63 -15,305c3,266 3,271 27,303c29,42 97,85 133,85c36,0 92,-44 123,-96c24,-41 118,-244 282,-607c41,-91 77,-168 81,-172c10,-10 53,-16 175,-23c59,-4 115,-8 123,-9c12,-1 56,92 170,359c140,329 157,364 198,403c58,54 97,59 153,16c60,-45 64,-74 61,-407l-3,-299l-29,-25c-27,-23 -36,-25 -103,-21l-73,3l0,-40l0,-40l138,-27c193,-38 395,-95 704,-199c147,-49 270,-89 273,-89c3,0 5,112 5,249c0,218 -2,250 -16,255c-32,12 -55,5 -136,-44l-83,-50l-3,95c-1,52 -1,138 0,191l3,97l83,-102c74,-90 110,-121 143,-121c5,0 9,82 9,198l0,197l-93,39c-517,219 -1244,350 -1980,359c-76,1 -139,1 -140,1zm76,-93c38,-42 60,-86 261,-526l132,-290l119,-10c81,-7 120,-14 123,-23c3,-10 -15,-11 -90,-6c-51,4 -110,9 -132,13l-38,6l-169,369c-172,375 -210,444 -269,484l-33,22l30,0c23,0 40,-10 66,-39zm713,-53c51,-35 95,-98 89,-130c-6,-27 -157,-410 -161,-406c-12,13 -194,436 -194,453c0,34 29,66 84,91c73,34 123,32 182,-8zm1019,-149c38,-10 56,-28 199,-200c106,-127 156,-195 154,-208c-2,-15 -47,34 -168,179c-151,183 -169,201 -209,212c-25,7 -47,20 -49,27c-3,10 0,12 13,7c10,-3 36,-11 60,-17zm40,-123c96,-108 95,-96 8,-152c-43,-27 -81,-50 -85,-52c-4,-2 -8,57 -8,132c0,112 3,136 14,136c8,0 40,-29 71,-64zm10,-461c43,-53 75,-98 72,-101c-11,-11 -149,-94 -157,-94c-4,0 -8,68 -8,150c-1,84 2,148 7,145c5,-3 44,-48 86,-100zm-2006,-34c21,-14 -10,-19 -164,-26c-71,-3 -206,-15 -299,-26c-93,-10 -171,-17 -174,-15c-17,17 171,45 443,65c157,12 178,12 194,2zm1596,-137c357,-90 725,-213 725,-241c0,-7 -4,-13 -9,-13c-6,0 -81,25 -168,55c-212,75 -489,158 -634,191c-72,17 -114,31 -107,36c21,13 48,9 193,-28z"/>
    <path stroke="null" id="svg_15" d="m447073.3125,-294402.25c-367,-68 -615,-143 -874,-263c-76,-35 -87,-46 -84,-84c3,-37 5,-38 49,-26c31,9 47,7 83,-6c71,-27 73,-36 73,-332c0,-250 -1,-260 -24,-309c-31,-66 -75,-115 -131,-145c-42,-23 -45,-26 -45,-66l0,-42l128,46c299,107 548,186 709,226l173,42l0,41l0,41l-51,-9c-75,-14 -155,6 -196,47l-33,33l0,111l0,112l103,-71l102,-71l5,227l5,226l110,-84c61,-46 115,-87 120,-90c6,-4 9,30 8,95c-1,56 -2,166 -2,245c-1,141 -1,142 -23,141c-13,0 -105,-16 -205,-35zm-103,-139c105,-44 290,-176 290,-207c0,-20 -1,-20 -32,4c-18,13 -67,50 -109,81c-85,64 -245,139 -278,130c-22,-6 -30,12 -8,20c27,12 56,6 137,-28zm-28,-67c40,-17 75,-33 77,-34c4,-3 -159,-194 -165,-194c-2,0 -4,59 -4,130c0,79 4,130 10,130c5,0 42,-14 82,-32zm22,-737c3,-5 -11,-12 -32,-16c-60,-11 -309,-90 -504,-161c-100,-35 -183,-62 -185,-60c-21,21 318,149 570,216c122,32 143,35 151,21z"/>
    <path stroke="null" id="svg_16" d="m447775.3125,-295437.25c-240,-20 -574,-66 -730,-100c-487,-107 -876,-254 -1137,-431c-32,-21 -58,-41 -58,-43c0,-2 46,24 103,57c299,179 782,336 1293,423c134,22 389,53 554,66c240,19 939,15 1085,-6c17,-2 80,-9 140,-15c61,-6 121,-12 135,-14c14,-3 61,-10 105,-16c579,-81 1145,-269 1488,-494c15,-10 27,-16 27,-13c0,13 -232,154 -332,202c-373,177 -911,316 -1418,365c-63,6 -128,13 -145,17c-50,9 -1003,11 -1110,2z"/>
    <path stroke="null" id="svg_17" d="m445962.3125,-296603.25c-19,-9 -53,-44 -78,-79c-85,-120 -160,-162 -224,-129c-16,8 -30,17 -30,18c0,1 -7,20 -15,42l-14,40l-1,-33c0,-44 22,-94 54,-119c14,-12 26,-23 26,-26c0,-8 -124,-27 -180,-27c-77,0 -51,-21 34,-27c113,-9 225,23 326,95l35,24l-30,-26c-87,-78 -190,-126 -315,-146c-55,-10 -70,-15 -55,-21c78,-31 262,19 354,96c35,30 43,24 9,-6c-93,-81 -248,-145 -363,-148c-58,-2 -3,-21 61,-21c72,0 148,21 226,62c168,89 322,354 248,428c-24,24 -26,24 -68,3z"/>
    <path stroke="null" id="svg_18" d="m450584.3125,-296600.25c-14,-11 -19,-26 -19,-63c0,-112 143,-311 270,-375c101,-52 252,-76 295,-48c11,7 6,10 -20,10c-110,0 -270,72 -361,160c-46,45 -49,49 -11,16c97,-87 250,-138 358,-121l49,8l-45,9c-125,23 -157,33 -228,68c-42,21 -91,54 -107,72c-22,24 -24,27 -5,12c72,-62 200,-99 309,-91c107,8 109,23 4,30c-48,2 -101,10 -117,16l-28,11l26,21c37,29 56,71 55,121c-1,40 -2,41 -8,13c-13,-51 -29,-73 -64,-84c-62,-21 -122,16 -202,124c-48,65 -95,105 -123,105c-4,0 -17,-6 -28,-14z"/>
   </g>
  </g>
 </g>
</svg>